<svg width="auto" height="auto" viewBox="0 0 341 613" fill="none"
                            xmlns="http://www.w3.org/2000/svg">
                            <rect x="181.208" y="284.073" width="28.6806" height="328.927" fill="#C4C4C4" />
                            <rect x="46" y="115.872" width="295" height="168.201" fill="#CC0000" />
                            <ellipse cx="193.5" cy="114.003" rx="147.5" ry="114.003" fill="#CC0000" />
                            <rect x="91" y="116" width="209" height="35" fill="#ECE8EF" />
                            <rect x="62" y="260" width="268" height="14" fill="#AB0404" />
                            <path
                                d="M154.398 72.9805V83H148.539V54.5625H159.633C161.768 54.5625 163.643 54.9531 165.258 55.7344C166.885 56.5156 168.135 57.6289 169.008 59.0742C169.88 60.5065 170.316 62.1406 170.316 63.9766C170.316 66.763 169.359 68.9635 167.445 70.5781C165.544 72.1797 162.908 72.9805 159.535 72.9805H154.398ZM154.398 68.2344H159.633C161.182 68.2344 162.361 67.8698 163.168 67.1406C163.988 66.4115 164.398 65.3698 164.398 64.0156C164.398 62.6224 163.988 61.4961 163.168 60.6367C162.348 59.7773 161.215 59.3346 159.77 59.3086H154.398V68.2344ZM197.719 69.4258C197.719 72.2253 197.224 74.6797 196.234 76.7891C195.245 78.8984 193.826 80.526 191.977 81.6719C190.141 82.8177 188.031 83.3906 185.648 83.3906C183.292 83.3906 181.189 82.8242 179.34 81.6914C177.491 80.5586 176.059 78.944 175.043 76.8477C174.027 74.7383 173.513 72.3164 173.5 69.582V68.1758C173.5 65.3763 174.001 62.9154 175.004 60.793C176.02 58.6576 177.445 57.0234 179.281 55.8906C181.13 54.7448 183.24 54.1719 185.609 54.1719C187.979 54.1719 190.082 54.7448 191.918 55.8906C193.767 57.0234 195.193 58.6576 196.195 60.793C197.211 62.9154 197.719 65.3698 197.719 68.1562V69.4258ZM191.781 68.1367C191.781 65.1549 191.247 62.8893 190.18 61.3398C189.112 59.7904 187.589 59.0156 185.609 59.0156C183.643 59.0156 182.126 59.7839 181.059 61.3203C179.991 62.8438 179.451 65.0833 179.438 68.0391V69.4258C179.438 72.3294 179.971 74.582 181.039 76.1836C182.107 77.7852 183.643 78.5859 185.648 78.5859C187.615 78.5859 189.125 77.8177 190.18 76.2812C191.234 74.7318 191.768 72.4792 191.781 69.5234V68.1367ZM216.723 75.5391C216.723 74.4323 216.332 73.5859 215.551 73C214.77 72.401 213.363 71.776 211.332 71.125C209.301 70.4609 207.693 69.8099 206.508 69.1719C203.279 67.4271 201.664 65.0768 201.664 62.1211C201.664 60.5846 202.094 59.2174 202.953 58.0195C203.826 56.8086 205.069 55.8646 206.684 55.1875C208.311 54.5104 210.134 54.1719 212.152 54.1719C214.184 54.1719 215.993 54.543 217.582 55.2852C219.171 56.0143 220.401 57.0495 221.273 58.3906C222.159 59.7318 222.602 61.2552 222.602 62.9609H216.742C216.742 61.6589 216.332 60.6497 215.512 59.9336C214.691 59.2044 213.539 58.8398 212.055 58.8398C210.622 58.8398 209.509 59.1458 208.715 59.7578C207.921 60.3568 207.523 61.151 207.523 62.1406C207.523 63.0651 207.986 63.8398 208.91 64.4648C209.848 65.0898 211.221 65.6758 213.031 66.2227C216.365 67.2253 218.793 68.4688 220.316 69.9531C221.84 71.4375 222.602 73.2865 222.602 75.5C222.602 77.9609 221.671 79.8945 219.809 81.3008C217.947 82.694 215.44 83.3906 212.289 83.3906C210.102 83.3906 208.109 82.9935 206.312 82.1992C204.516 81.3919 203.142 80.2917 202.191 78.8984C201.254 77.5052 200.785 75.8906 200.785 74.0547H206.664C206.664 77.1927 208.539 78.7617 212.289 78.7617C213.682 78.7617 214.77 78.4818 215.551 77.9219C216.332 77.349 216.723 76.5547 216.723 75.5391ZM247.992 59.3086H239.281V83H233.422V59.3086H224.828V54.5625H247.992V59.3086Z"
                                fill="#ECE8EF" />
                            <rect x="9.87959" y="165.347" width="135" height="91"
                                transform="rotate(-26.876 9.87959 165.347)" fill="#F3B456" />
                            <line x1="9.00476" y1="165.299" x2="87.7302" y2="168.002" stroke="#936013" />
                            <line x1="87.2996" y1="168.221" x2="130.336" y2="104.929" stroke="#936013" />
                            <path d="M87.267 168.728L170.868 185.216L51.1327 245.898L87.267 168.728Z" fill="#E99922" />
                            <circle cx="88.9999" cy="169" r="20" transform="rotate(-25.4076 88.9999 169)"
                                fill="white" />
                            <path d="M79.9673 173.291L90.626 177.084" stroke="#37A368" stroke-width="3" />
                            <path d="M95.8875 160.193L88.8193 177.942" stroke="#37A368" stroke-width="3" />
                        </svg>